<svg viewBox="0 0 92 93" fill="none" xmlns="http://www.w3.org/2000/svg" role="img" aria-label="Alex S. Moy">
<title>Alex S. Moy</title>
<path d="M45.7832 0.748535C71.0919 0.748733 91.6084 21.266 91.6084 46.5747C91.6081 71.8832 71.0917 92.3997 45.7832 92.3999C27.9804 92.3999 12.5484 82.248 4.96094 67.4175C5.10819 67.4218 5.2566 67.4253 5.40625 67.4253C6.7425 67.4253 8.0085 67.1617 9.2041 66.6343C10.3997 66.1068 11.4548 65.2801 12.3691 64.1548C12.5243 63.9651 12.6715 63.7656 12.8135 63.5581L13.2656 66.8979H19.2793V64.8052C20.1939 65.5053 21.2457 66.0815 22.4385 66.5288C23.8451 67.0563 25.4282 67.3198 27.1865 67.3198C29.1908 67.3198 30.9314 66.986 32.4082 66.3179C33.8852 65.6497 35.0281 64.7 35.8369 63.4692C35.8866 63.3937 35.9338 63.3168 35.9805 63.2397V66.8979H40.4648V52.9194C40.4648 51.0206 40.7108 49.4383 41.2031 48.1724C41.6954 46.9065 42.3983 45.9567 43.3125 45.3237C44.2268 44.6556 45.3171 44.3218 46.583 44.3218C48.3412 44.3218 49.6775 44.9368 50.5918 46.1675C51.5061 47.3983 51.9639 49.2625 51.9639 51.7593V66.8979H56.4473V52.9194C56.4473 51.0207 56.6757 49.4383 57.1328 48.1724C57.6251 46.8712 58.3113 45.904 59.1904 45.271C60.1047 44.638 61.195 44.3218 62.4609 44.3218C63.7971 44.3218 64.8524 44.638 65.626 45.271C66.4347 45.904 67.0146 46.8011 67.3662 47.9614C67.753 49.1218 67.9463 50.5109 67.9463 52.1284V66.8979H72.3779V51.0737C72.3779 49.1396 72.0783 47.3808 71.4805 45.7983C70.8827 44.1809 69.9338 42.8972 68.6328 41.9478C67.3317 40.9631 65.608 40.4712 63.4629 40.4712C61.775 40.4712 60.3157 40.805 59.085 41.4731C57.8893 42.1061 56.8869 43.0558 56.0781 44.3218C55.9079 44.5808 55.7456 44.8532 55.5879 45.1372C55.4169 44.7716 55.2294 44.4291 55.0234 44.1108C54.2498 42.8801 53.2649 41.9655 52.0693 41.3677C50.8738 40.7699 49.4847 40.4712 47.9023 40.4712C46.9529 40.4712 46.0383 40.6117 45.1592 40.8931C44.3152 41.1744 43.5236 41.6136 42.7852 42.2114C42.0467 42.7741 41.3966 43.513 40.834 44.4272C40.7046 44.6429 40.5815 44.8691 40.4648 45.106V40.8931H35.9805V45.2202C35.075 43.6725 33.8322 42.5111 32.25 41.7368C30.6324 40.8928 28.8384 40.4712 26.8691 40.4712C24.1617 40.4713 21.9642 41.139 20.2764 42.4751C19.2371 43.2932 18.5245 44.2784 18.1387 45.4302C17.6642 44.5375 17.0434 43.745 16.2725 43.0552C14.2681 41.2618 11.4724 40.3648 7.88574 40.3647C5.67033 40.3647 3.59523 40.6996 1.66113 41.3677C1.16757 41.5322 0.676353 41.7252 0.1875 41.9468C2.50744 18.8111 22.0363 0.748535 45.7832 0.748535ZM19.2793 51.7769C19.633 52.1715 20.0344 52.5186 20.4873 52.814C21.2959 53.3413 22.1924 53.7807 23.1768 54.1323C24.1965 54.484 25.199 54.7836 26.1836 55.0298C27.344 55.3111 28.4167 55.6274 29.4014 55.979C30.386 56.3307 31.1776 56.7875 31.7754 57.3501C32.3732 57.9128 32.6719 58.6867 32.6719 59.6714C32.6719 60.867 32.1799 61.8167 31.1953 62.52C30.2108 63.2233 28.8919 63.5746 27.2393 63.5747C25.4106 63.5747 23.8275 63.1531 22.4912 62.3091C21.1901 61.4299 20.2053 60.3221 19.5371 58.9858L19.2793 59.2036V51.7769ZM12.7383 55.979V56.1899C12.7383 57.3504 12.4396 58.388 11.8418 59.3022C11.2792 60.1813 10.5051 60.8841 9.52051 61.4116C8.57103 61.9039 7.51595 62.1509 6.35547 62.1509C5.05437 62.1509 4.0168 61.8512 3.24316 61.2534C2.4698 60.6557 2.08308 59.8648 2.08301 58.8804C2.08301 58.4232 2.17085 58.0182 2.34668 57.6665C2.5225 57.2799 2.78617 56.9634 3.1377 56.7173C3.52452 56.4008 3.98228 56.2075 4.50977 56.1372C5.07227 56.0318 5.63476 55.979 6.19727 55.979H12.7383ZM26.7109 44.0581C28.0823 44.0581 29.3308 44.3393 30.4561 44.9019C31.6165 45.4293 32.5486 46.3087 33.252 47.5396L35.9805 45.5181V55.3354C35.4389 54.5138 34.7407 53.8485 33.8848 53.3413C32.9355 52.7788 31.8984 52.3218 30.7734 51.9702C29.6483 51.6186 28.5402 51.3199 27.4502 51.0737C26.2546 50.7924 25.2346 50.4927 24.3906 50.1763C23.5818 49.8598 22.9659 49.4733 22.5439 49.0161C22.122 48.559 21.9111 47.9606 21.9111 47.2222C21.9113 46.2379 22.3683 45.4644 23.2822 44.9019C24.1965 44.3393 25.3396 44.0582 26.7109 44.0581ZM7.35742 45.9038C9.00995 45.9038 10.3113 46.2906 11.2607 47.064C12.2453 47.8024 12.7382 48.9455 12.7383 50.4927V51.1265H5.24805C4.01728 51.1265 2.85671 51.2319 1.7666 51.4429C1.24379 51.5474 0.742366 51.6903 0.262695 51.8726C0.134871 50.7623 0.0470161 49.6402 0 48.5073C0.940174 47.768 1.98498 47.1798 3.1377 46.7476C4.57937 46.185 5.98607 45.9039 7.35742 45.9038Z" fill="url(#afLogoGradient)"/>
<defs>
<linearGradient id="afLogoGradient" x1="12.16" y1="21.9856" x2="89.3054" y2="92.5374" gradientUnits="userSpaceOnUse">
<stop offset="0.5" stop-color="#FFFFFF"/>
<stop offset="1" stop-color="#67FCF1"/>
</linearGradient>
</defs>
</svg>
